<?xml version="1.0" standalone="no"?>
<!DOCTYPE svg PUBLIC "-//W3C//DTD SVG 20010904//EN"
 "http://www.w3.org/TR/2001/REC-SVG-20010904/DTD/svg10.dtd">
<svg version="1.0" xmlns="http://www.w3.org/2000/svg"
 width="768.000000pt" height="372.000000pt" viewBox="0 0 768.000000 372.000000"
 preserveAspectRatio="xMidYMid meet">

<g transform="translate(0.000000,372.000000) scale(0.100000,-0.100000)"
fill="#000000" stroke="none">
<path d="M4525 3269 c-488 -20 -853 -42 -904 -56 -141 -36 -275 -146 -336
-275 -64 -135 -105 -508 -112 -1016 -5 -374 5 -565 48 -902 30 -236 63 -313
177 -422 106 -101 196 -133 412 -148 934 -64 2992 -44 3233 30 132 41 252 146
313 275 37 77 57 189 91 520 25 238 25 886 0 1131 -25 252 -53 432 -77 496
-55 148 -196 271 -356 311 -192 48 -1788 84 -2489 56z m-95 -584 l0 -125 -139
0 c-77 0 -146 -3 -155 -6 -14 -6 -16 -86 -16 -805 l0 -799 -135 0 -135 0 -2
803 -3 802 -145 5 -145 5 -3 123 -3 122 441 0 440 0 0 -125z m1230 -175 c0
-165 1 -300 3 -300 2 0 25 21 53 46 67 64 134 94 207 94 128 0 195 -74 217
-243 8 -57 10 -230 8 -524 -4 -374 -7 -445 -21 -489 -38 -116 -106 -168 -212
-162 -74 5 -122 27 -190 90 -29 26 -56 48 -59 48 -3 0 -6 -27 -6 -60 l0 -60
-125 0 -125 0 0 930 0 930 125 0 125 0 0 -300z m1231 -192 c65 -30 129 -89
159 -147 39 -78 50 -154 50 -368 l0 -203 -250 0 -250 0 0 -165 c0 -176 7 -213
50 -253 51 -47 144 -32 176 30 12 22 19 64 22 126 l4 93 122 -3 121 -3 3 -94
c4 -132 -20 -210 -89 -285 -30 -33 -73 -66 -107 -83 -52 -26 -67 -28 -167 -28
-105 0 -114 2 -177 33 -114 56 -172 142 -198 295 -8 42 -10 187 -8 423 4 347
5 361 28 427 15 45 38 85 67 117 84 93 153 121 293 117 79 -2 105 -7 151 -29z
m-2171 -558 c3 -316 8 -580 12 -586 26 -40 126 -11 176 52 l27 34 5 537 5 538
123 3 122 3 0 -696 0 -695 -125 0 -125 0 0 71 0 71 -59 -54 c-79 -71 -140
-101 -217 -106 -66 -4 -103 9 -140 50 -48 53 -48 55 -52 712 -2 340 -1 625 2
633 4 11 30 13 123 11 l118 -3 5 -575z"/>
<path d="M5725 2114 c-70 -36 -65 -2 -65 -475 l0 -429 40 -26 c82 -54 166 -29
190 55 14 50 13 755 -1 805 -22 79 -91 109 -164 70z"/>
<path d="M6661 2114 c-44 -31 -61 -88 -61 -206 l0 -108 125 0 125 0 0 110 c0
123 -11 164 -55 198 -34 27 -100 29 -134 6z"/>
<path d="M250 2808 c0 -7 57 -179 126 -383 69 -203 144 -435 167 -515 l41
-145 6 -410 5 -410 140 0 140 0 5 400 5 400 163 533 c89 293 162 535 162 538
0 2 -64 3 -142 2 l-142 -3 -93 -354 c-50 -194 -94 -355 -96 -357 -2 -2 -46
150 -97 338 -51 189 -97 351 -102 361 -8 15 -25 17 -148 17 -105 0 -140 -3
-140 -12z"/>
<path d="M1480 2344 c-148 -39 -235 -153 -260 -339 -17 -131 -8 -742 12 -810
45 -152 141 -239 290 -265 165 -29 320 49 390 196 43 92 51 187 46 578 -4 286
-8 350 -22 396 -61 194 -254 298 -456 244z m176 -245 c40 -37 44 -79 44 -462
0 -315 -2 -372 -16 -407 -37 -92 -151 -95 -194 -5 -20 41 -21 57 -18 426 3
426 4 429 68 462 41 20 84 15 116 -14z"/>
<path d="M2170 1713 c0 -425 4 -641 11 -668 24 -86 115 -136 210 -116 71 15
119 43 188 107 l61 56 0 -76 0 -76 125 0 125 0 0 700 0 700 -125 0 -125 0 0
-531 c0 -526 0 -531 -21 -561 -33 -46 -97 -88 -135 -88 -66 0 -64 -19 -64 612
l0 568 -125 0 -125 0 0 -627z"/>
</g>
</svg>
